<svg width="45" height="45" viewBox="0 0 45 45" fill="none" xmlns="http://www.w3.org/2000/svg">
<path d="M38.6719 13.623H32.1855C32.7832 12.6826 33.1348 11.5664 33.1348 10.3711C33.1348 7.02686 30.4146 4.30664 27.0703 4.30664C25.251 4.30664 23.6118 5.11523 22.5 6.38965C21.3882 5.11523 19.749 4.30664 17.9297 4.30664C14.5854 4.30664 11.8652 7.02686 11.8652 10.3711C11.8652 11.5664 12.2124 12.6826 12.8145 13.623H6.32812C5.55029 13.623 4.92188 14.2515 4.92188 15.0293V23.8184C4.92188 24.0117 5.08008 24.1699 5.27344 24.1699H7.03125V39.2871C7.03125 40.0649 7.65967 40.6934 8.4375 40.6934H36.5625C37.3403 40.6934 37.9688 40.0649 37.9688 39.2871V24.1699H39.7266C39.9199 24.1699 40.0781 24.0117 40.0781 23.8184V15.0293C40.0781 14.2515 39.4497 13.623 38.6719 13.623ZM23.9941 10.3711C23.9941 8.6748 25.374 7.29492 27.0703 7.29492C28.7666 7.29492 30.1465 8.6748 30.1465 10.3711C30.1465 12.0674 28.7666 13.4473 27.0703 13.4473H23.9941V10.3711ZM17.9297 7.29492C19.626 7.29492 21.0059 8.6748 21.0059 10.3711V13.4473H17.9297C16.2334 13.4473 14.8535 12.0674 14.8535 10.3711C14.8535 8.6748 16.2334 7.29492 17.9297 7.29492ZM7.91016 21.1816V16.6113H21.0059V21.1816H7.91016ZM10.0195 24.1699H21.0059V37.7051H10.0195V24.1699ZM34.9805 37.7051H23.9941V24.1699H34.9805V37.7051ZM37.0898 21.1816H23.9941V16.6113H37.0898V21.1816Z" fill="#3F3F3F"/>
</svg>
