<svg width="66" height="82" viewBox="0 0 66 82" fill="none" xmlns="http://www.w3.org/2000/svg">
<path d="M62.37 2.29602H15.708C15.18 2.29602 14.718 2.75522 14.718 3.28002V28.6016H3.63001C3.10201 28.6016 2.64001 29.0608 2.64001 29.5856V56.2848C2.64001 60.1552 5.80801 63.304 9.70201 63.304H56.43C60.324 63.304 63.492 60.1552 63.492 56.2848V3.28002C63.36 2.75522 62.964 2.29602 62.37 2.29602ZM4.62001 56.2848V30.5696H14.718V56.2848C14.718 59.04 12.474 61.336 9.63601 61.336C6.79801 61.336 4.62001 59.04 4.62001 56.2848ZM61.38 56.2848C61.38 59.04 59.136 61.336 56.298 61.336H14.52C14.52 61.336 14.52 61.336 14.586 61.2704C14.652 61.2048 14.784 61.0736 14.85 61.008C14.916 60.9424 14.982 60.8768 15.048 60.8112C15.114 60.7456 15.18 60.6144 15.246 60.5488C15.312 60.4832 15.378 60.4176 15.444 60.2864C15.51 60.1552 15.576 60.0896 15.642 59.9584C15.708 59.8928 15.774 59.7616 15.774 59.696C15.84 59.5648 15.906 59.4992 15.972 59.368C16.038 59.3024 16.038 59.1712 16.104 59.1056C16.17 58.9744 16.17 58.8432 16.236 58.712C16.302 58.6464 16.302 58.5152 16.368 58.4496C16.434 58.3184 16.434 58.1872 16.5 58.056C16.5 57.9904 16.566 57.8592 16.566 57.7936C16.566 57.6624 16.632 57.4656 16.632 57.3344C16.632 57.2688 16.632 57.2032 16.698 57.072C16.698 56.8096 16.764 56.6128 16.764 56.3504V4.26402H61.38V56.2848Z" fill="black"/>
<path d="M24.288 52.152C24.486 52.48 24.816 52.6112 25.146 52.6112C25.476 52.6112 25.806 52.4144 26.004 52.152L30.36 44.6736C30.624 44.2144 30.492 43.624 30.03 43.296C29.568 43.0336 28.974 43.1648 28.644 43.624L25.146 49.5936L24.156 47.888C23.892 47.4288 23.298 47.232 22.77 47.56C22.308 47.8224 22.11 48.4128 22.44 48.9376L24.288 52.152Z" fill="black"/>
<path d="M34.32 51.3648H54.78C55.308 51.3648 55.77 50.9056 55.77 50.3808C55.77 49.8561 55.308 49.3969 54.78 49.3969H34.32C33.792 49.3969 33.33 49.8561 33.33 50.3808C33.33 50.9056 33.792 51.3648 34.32 51.3648Z" fill="black"/>
<path d="M34.32 46.3792H54.78C55.308 46.3792 55.77 45.92 55.77 45.3952C55.77 44.8704 55.308 44.4112 54.78 44.4112H34.32C33.792 44.4112 33.33 44.8704 33.33 45.3952C33.33 45.92 33.792 46.3792 34.32 46.3792Z" fill="black"/>
<path d="M24.288 21.9104C24.486 22.2384 24.816 22.3696 25.146 22.3696C25.476 22.3696 25.806 22.1728 26.004 21.9104L30.36 14.4976C30.624 14.0384 30.492 13.448 30.03 13.12C29.568 12.8576 28.974 12.9888 28.644 13.448L25.146 19.4176L24.156 17.712C23.892 17.2528 23.298 17.056 22.77 17.384C22.308 17.6464 22.11 18.2368 22.44 18.7616L24.288 21.9104Z" fill="black"/>
<path d="M34.32 21.1888H54.78C55.308 21.1888 55.77 20.7296 55.77 20.2048C55.77 19.68 55.308 19.2208 54.78 19.2208H34.32C33.792 19.2208 33.33 19.68 33.33 20.2048C33.33 20.7296 33.792 21.1888 34.32 21.1888Z" fill="black"/>
<path d="M34.32 16.2032H54.78C55.308 16.2032 55.77 15.744 55.77 15.2192C55.77 14.6944 55.308 14.2352 54.78 14.2352H34.32C33.792 14.2352 33.33 14.6944 33.33 15.2192C33.33 15.744 33.792 16.2032 34.32 16.2032Z" fill="black"/>
<path d="M24.288 36.9984C24.486 37.3264 24.816 37.4576 25.146 37.4576C25.476 37.4576 25.806 37.2608 26.004 36.9984L30.36 29.5856C30.624 29.1264 30.492 28.536 30.03 28.208C29.568 27.9456 28.974 28.0768 28.644 28.536L25.146 34.5056L24.156 32.8C23.892 32.3408 23.298 32.144 22.77 32.472C22.308 32.7344 22.11 33.3248 22.44 33.8496L24.288 36.9984Z" fill="black"/>
<path d="M34.32 36.2768H54.78C55.308 36.2768 55.77 35.8176 55.77 35.2928C55.77 34.768 55.308 34.3088 54.78 34.3088H34.32C33.792 34.3088 33.33 34.768 33.33 35.2928C33.33 35.8176 33.792 36.2768 34.32 36.2768Z" fill="black"/>
<path d="M34.32 31.2912H54.78C55.308 31.2912 55.77 30.832 55.77 30.3072C55.77 29.7824 55.308 29.3232 54.78 29.3232H34.32C33.792 29.3232 33.33 29.7824 33.33 30.3072C33.33 30.832 33.792 31.2912 34.32 31.2912Z" fill="black"/>
</svg>
